<svg width="35" height="37" viewBox="0 0 35 37" fill="none" xmlns="http://www.w3.org/2000/svg">
<path d="M12.8805 32.7535V27.7701C12.8804 26.5025 13.9138 25.4726 15.1941 25.4641H19.884C21.1705 25.4641 22.2133 26.4965 22.2133 27.7701V32.769C22.213 33.8452 23.0807 34.7248 24.1674 34.75H27.294C30.4108 34.75 32.9375 32.2486 32.9375 29.163V14.9865C32.9209 13.7726 32.3451 12.6327 31.3742 11.8912L20.6813 3.36361C18.808 1.8788 16.1451 1.8788 14.2718 3.36361L3.62579 11.9067C2.65117 12.6452 2.0745 13.787 2.0625 15.002V29.163C2.0625 32.2486 4.58917 34.75 7.70598 34.75H10.8326C11.9463 34.75 12.8492 33.8561 12.8492 32.7535" stroke="#494949" stroke-width="3" stroke-linecap="round" stroke-linejoin="round"/>
</svg>
