<svg width="36" height="34" viewBox="0 0 36 34" fill="none" xmlns="http://www.w3.org/2000/svg">
<path d="M35.0891 20.6534C34.0348 19.6971 33.4636 18.3666 33.4636 16.9945C33.4636 15.6224 34.0348 14.3335 35.0891 13.3356C35.2648 13.1693 35.4405 13.0446 35.6602 12.8782C35.9677 12.6704 36.0556 12.2961 35.9677 11.9635C35.6163 10.7578 35.0891 9.59356 34.4741 8.51253C34.2983 8.22148 33.9469 8.05517 33.5954 8.09674C33.2879 8.13832 33.0683 8.13832 32.8486 8.13832C29.8174 8.13832 27.3573 5.80994 27.3573 2.98262C27.3573 2.77473 27.3573 2.52526 27.4012 2.27579C27.4451 1.94316 27.2694 1.61054 26.9619 1.44422C25.8197 0.862128 24.5896 0.363189 23.3156 0.0305627C22.9642 -0.0525938 22.5688 0.0721409 22.3492 0.32161C22.1734 0.529502 21.9977 0.737393 21.8659 0.862128C20.8116 1.81843 19.4497 2.35895 18 2.35895C16.5503 2.35895 15.1445 1.81843 14.1341 0.862128C13.9584 0.695815 13.8266 0.529502 13.6508 0.32161C13.4312 0.0305626 13.0358 -0.0525938 12.6844 0.0305627C11.4104 0.404767 10.1803 0.862128 9.03811 1.44422C8.7306 1.61054 8.55487 1.94316 8.5988 2.27579C8.64274 2.56684 8.64273 2.77473 8.64273 2.98262C8.64273 5.85152 6.18261 8.13832 3.15138 8.13832C2.93173 8.13832 2.66814 8.13832 2.40456 8.09674C2.05311 8.05517 1.70166 8.22148 1.52594 8.51253C0.910908 9.59356 0.383739 10.7578 0.032292 11.9635C-0.0555696 12.2961 0.0322919 12.6704 0.339808 12.8782C0.603393 13.0446 0.779116 13.2109 0.910909 13.3356C3.06352 15.3314 3.06352 18.616 0.910909 20.6534C0.735185 20.8197 0.559462 20.9444 0.339808 21.1107C0.0322919 21.3186 -0.0555696 21.6928 0.032292 22.0255C0.427669 23.2312 0.910908 24.3954 1.52594 25.4765C1.70166 25.7675 2.05311 25.9338 2.40456 25.8922C2.71207 25.8507 2.93173 25.8507 3.15138 25.8507C6.18261 25.8507 8.64273 28.179 8.64273 31.0064C8.64273 31.2143 8.64274 31.4637 8.5988 31.7132C8.55487 32.0458 8.7306 32.3784 9.03811 32.5448C10.1803 33.1269 11.4104 33.6258 12.6844 33.9584C13.0358 34.0416 13.4312 33.9584 13.6508 33.6674C13.8266 33.4595 14.0023 33.2516 14.1341 33.1269C15.1884 32.1706 16.5503 31.63 18 31.63C19.4497 31.63 20.8555 32.1706 21.8659 33.1269C22.0416 33.2932 22.1734 33.4595 22.3492 33.6674C22.5249 33.8753 22.7885 34 23.052 34C23.1399 34 23.2278 34 23.3156 33.9584C24.5896 33.5842 25.8197 33.1269 26.9619 32.5448C27.2694 32.3784 27.4451 32.0458 27.4012 31.7132C27.3573 31.4221 27.3573 31.2143 27.3573 31.0064C27.3573 28.1375 29.8174 25.8507 32.8486 25.8507C33.0683 25.8507 33.3319 25.8507 33.5954 25.8922C33.9469 25.9338 34.2983 25.7675 34.4741 25.4765C35.0891 24.3954 35.6163 23.2312 35.9677 22.0255C36.0556 21.6928 35.9677 21.3186 35.6602 21.1107C35.4405 20.9444 35.2209 20.8197 35.0891 20.6534ZM33.2001 24.1875H32.8047C28.807 24.1875 25.5561 27.2643 25.5561 31.0064V31.3806C24.8532 31.7132 24.1064 32.0042 23.3156 32.2537L23.052 32.0042C21.6902 30.7153 19.889 30.0085 17.9561 30.0085C16.0231 30.0085 14.2219 30.7153 12.8601 32.0042L12.5965 32.2537C11.8497 32.0042 11.1029 31.7132 10.356 31.3806V31.0064C10.356 27.2227 7.10516 24.1875 3.10745 24.1875H2.71207C2.36063 23.5223 2.05311 22.8155 1.78953 22.067L2.05311 21.8176C4.86468 19.1566 4.86468 14.8324 2.05311 12.1298L1.78953 11.8804C2.05311 11.1735 2.36063 10.4667 2.71207 9.75987H3.10745C7.10516 9.75987 10.356 6.68308 10.356 2.94104V2.56684C11.0589 2.23421 11.8058 1.94316 12.5965 1.69369L12.8601 1.94316C14.2219 3.23209 16.0231 3.93892 17.9561 3.93892C19.889 3.93892 21.6902 3.23209 23.052 1.94316L23.3156 1.69369C24.0625 1.94316 24.8093 2.23421 25.5561 2.56684V2.94104C25.5561 6.72466 28.807 9.75987 32.8047 9.75987H33.2001C33.5515 10.4251 33.859 11.132 34.1226 11.8804L33.859 12.1298C32.4972 13.4188 31.7504 15.1235 31.7504 16.9529C31.7504 18.7824 32.4972 20.4871 33.859 21.776L34.1226 22.0255C33.859 22.8155 33.5515 23.5223 33.2001 24.1875ZM18 7.09887C12.2451 7.09887 7.54446 11.5477 7.54446 16.9945C7.54446 22.4412 12.2451 26.8901 18 26.8901C23.7549 26.8901 28.4555 22.4412 28.4555 16.9945C28.4555 11.5477 23.7549 7.09887 18 7.09887ZM18 25.227C13.2115 25.227 9.3017 21.5265 9.3017 16.9945C9.3017 12.4625 13.2115 8.762 18 8.762C22.7885 8.762 26.6983 12.4625 26.6983 16.9945C26.6983 21.5265 22.7885 25.227 18 25.227Z" fill="#494949"/>
</svg>
