<svg width="31" height="36" viewBox="0 0 31 36" fill="none" xmlns="http://www.w3.org/2000/svg">
<path d="M9.15909 13.8462C8.76998 13.8462 8.45455 14.1561 8.45455 14.5385V15.9231C8.45455 17.0701 9.40085 18 10.5682 18H11.9773C13.1446 18 14.0909 17.0701 14.0909 15.9231V14.5385C14.0909 14.1561 13.7755 13.8462 13.3864 13.8462H9.15909Z" fill="#494949"/>
<path d="M13.1916 23.9212L14.8698 20.6231C15.1295 20.1128 15.8705 20.1128 16.1302 20.6231L17.8084 23.9212C18.0426 24.3815 17.7019 24.9231 17.1782 24.9231H13.8218C13.2981 24.9231 12.9574 24.3815 13.1916 23.9212Z" fill="#494949"/>
<path d="M16.9091 14.5385C16.9091 14.1561 17.2245 13.8462 17.6136 13.8462H21.8409C22.23 13.8462 22.5455 14.1561 22.5455 14.5385V15.9231C22.5455 17.0701 21.5991 18 20.4318 18H19.0227C17.8554 18 16.9091 17.0701 16.9091 15.9231V14.5385Z" fill="#494949"/>
<path fill-rule="evenodd" clip-rule="evenodd" d="M2.46704 18.9583C1.79038 17.3879 1.40909 15.7242 1.40909 13.8462C1.40909 6.19913 7.71781 0 15.5 0C23.2822 0 29.5909 6.19913 29.5909 13.8462C29.5909 15.7242 29.2096 17.3879 28.533 18.9583C30.0213 19.9544 31 21.633 31 23.5385C31 26.5973 28.4765 29.0769 25.3636 29.0769V30.4615C25.3636 33.5203 22.8401 36 19.7273 36H11.2727C8.15986 36 5.63638 33.5204 5.63637 30.4616L5.63636 29.0769C2.52349 29.0769 0 26.5973 0 23.5385C0 21.633 0.978749 19.9544 2.46704 18.9583ZM4.22727 13.8462C4.22727 7.72854 9.27424 2.76923 15.5 2.76923C21.7258 2.76923 26.7727 7.72854 26.7727 13.8462C26.7727 15.6591 26.3308 17.2095 25.521 18.7488C25.3942 18.9897 25.3465 19.2503 25.3685 19.5019C25.3142 20.1157 25.6846 20.7116 26.3032 20.9265C27.3996 21.3073 28.1818 22.3349 28.1818 23.5385C28.1818 25.0679 26.9201 26.3077 25.3636 26.3077C25.0317 26.3077 24.7161 26.2519 24.4241 26.1505C23.6904 25.8957 22.8853 26.2736 22.626 26.9945C22.5425 27.2266 22.5258 27.4659 22.5659 27.6923H22.5455V30.4615C22.5455 31.9909 21.2837 33.2308 19.7273 33.2308V29.0769C19.7273 28.3122 19.0964 27.6923 18.3182 27.6923C17.54 27.6923 16.9091 28.3122 16.9091 29.0769V33.2308H14.0909V29.0769C14.0909 28.3122 13.46 27.6923 12.6818 27.6923C11.9036 27.6923 11.2727 28.3122 11.2727 29.0769L11.2727 33.2308C9.7163 33.2308 8.45456 31.9909 8.45455 30.4615L8.45455 27.6923H8.43412C8.47424 27.4659 8.45747 27.2266 8.374 26.9945C8.11466 26.2736 7.30962 25.8957 6.57588 26.1505C6.28387 26.2519 5.96827 26.3077 5.63636 26.3077C4.07992 26.3077 2.81818 25.0679 2.81818 23.5385C2.81818 22.3349 3.60037 21.3073 4.69685 20.9265C5.31542 20.7116 5.68584 20.1157 5.63148 19.5019C5.65349 19.2503 5.60575 18.9897 5.479 18.7488C4.66922 17.2095 4.22727 15.6591 4.22727 13.8462Z" fill="#494949"/>
</svg>
